<svg width="32" height="32" viewBox="0 0 32 32" fill="none" xmlns="http://www.w3.org/2000/svg">
<path d="M15.9544 11.5464C18.653 11.5077 28.6623 16.1698 28.6623 16.1698C30.2618 16.8298 32 15.6151 32 13.8353V8.2464C32 7.2178 31.3975 6.0242 30.4736 5.64154C30.4736 5.64154 20.844 0.0210897 15.9544 2.61226e-05C12.4304 -0.0140162 1.52276 5.63803 1.52276 5.63803C0.602527 6.02069 0 7.21429 0 8.23938V13.8247C0 15.6081 1.74553 16.8263 3.34499 16.1593C3.34499 16.1593 13.6173 11.5815 15.9544 11.5464Z" fill="#1E1E1E"/>
<path d="M15.9544 27.1931C18.653 27.1545 28.6623 31.8165 28.6623 31.8165C30.2618 32.48 32 31.2619 32 29.482V23.8931C32 22.8645 31.3975 21.6709 30.4736 21.2883C30.4736 21.2883 20.844 15.6678 15.9544 15.6468C12.4304 15.6327 1.52276 21.2848 1.52276 21.2848C0.602527 21.6674 0 22.861 0 23.8861V29.4715C0 31.2548 1.74553 32.473 3.34499 31.806C3.34499 31.806 13.6173 27.2282 15.9544 27.1931Z" fill="#1E1E1E"/>
</svg>
