<svg width="200" height="200" viewBox="0 0 200 200" fill="none" xmlns="http://www.w3.org/2000/svg">
    <rect width="200" height="200" rx="100" fill="white" />
    <path fill-rule="evenodd" clip-rule="evenodd"
        d="M50 0C22.3858 0 0 22.3858 0 50V150C0 177.614 22.3858 200 50 200H150C177.614 200 200 177.614 200 150V50C200 22.3858 177.614 0 150 0H50ZM99.8574 86.0824C108.291 85.9617 139.57 100.531 139.57 100.531C144.568 102.593 150 98.7972 150 93.2352V75.77C150 72.5556 148.117 68.8256 145.23 67.6298C145.23 67.6298 115.138 50.0659 99.8574 50.0001C88.8451 49.9562 54.7586 67.6189 54.7586 67.6189C51.8829 68.8146 50 72.5446 50 75.7481V93.2023C50 98.7753 55.4548 102.582 60.4531 100.498C60.4531 100.498 92.5539 86.1921 99.8574 86.0824ZM99.8574 134.978C108.291 134.858 139.57 149.427 139.57 149.427C144.568 151.5 150 147.693 150 142.131V124.666C150 121.452 148.117 117.722 145.23 116.526C145.23 116.526 115.138 98.962 99.8574 98.8961C88.8451 98.8522 54.7586 116.515 54.7586 116.515C51.8829 117.711 50 121.441 50 124.644V142.098C50 147.671 55.4548 151.478 60.4531 149.394C60.4531 149.394 92.5539 135.088 99.8574 134.978Z"
        fill="#1E1E1E" />
</svg>