<svg width="32" height="32" viewBox="0 0 32 32" fill="none" xmlns="http://www.w3.org/2000/svg">
<path d="M28.6623 16.1698C28.6623 16.1698 18.653 11.5077 15.9544 11.5464C13.6173 11.5815 3.34499 16.1593 3.34499 16.1593C1.74553 16.8263 0 15.6081 0 13.8247V8.23938C0 7.21429 0.602527 6.02069 1.52276 5.63803C1.52276 5.63803 12.4304 -0.0140162 15.9544 2.61226e-05C20.844 0.0210897 30.4736 5.64154 30.4736 5.64154C31.3975 6.0242 32 7.21779 32 8.2464V13.8353C32 15.6151 30.2618 16.8298 28.6623 16.1698Z" fill="#1E1E1E"/>
<path d="M28.6623 31.8165C28.6623 31.8165 18.653 27.1545 15.9544 27.1931C13.6173 27.2282 3.34499 31.806 3.34499 31.806C1.74553 32.473 0 31.2548 0 29.4715V23.8861C0 22.861 0.602527 21.6674 1.52276 21.2848C1.52276 21.2848 12.4304 15.6327 15.9544 15.6468C20.844 15.6678 30.4736 21.2883 30.4736 21.2883C31.3975 21.6709 32 22.8645 32 23.8931V29.482C32 31.2619 30.2618 32.48 28.6623 31.8165Z" fill="#1E1E1E"/>
</svg>
