<svg width="200" height="33" viewBox="0 0 200 33" fill="none" xmlns="http://www.w3.org/2000/svg">
<path d="M28.7703 16.2307C28.7703 16.2307 18.7232 11.5511 16.0144 11.5898C13.6685 11.6251 3.35758 16.2201 3.35758 16.2201C1.75211 16.8897 0 15.6669 0 13.8768V8.27041C0 7.24146 0.604797 6.04336 1.5285 5.65927C1.5285 5.65927 12.4773 -0.014069 16.0144 2.6221e-05C20.9225 0.0211691 30.5884 5.66279 30.5884 5.66279C31.5157 6.04689 32.1205 7.24498 32.1205 8.27746V13.8874C32.1205 15.6739 30.3758 16.8932 28.7703 16.2307Z" fill="#1E1E1E"/>
<path d="M156.566 26.1604C156.787 25.9508 156.897 25.6279 156.897 25.1917V11.6802H161.052V25.2767C161.052 26.3531 160.832 27.2085 160.39 27.843C159.953 28.4775 159.336 28.9336 158.537 29.2111C157.738 29.4887 156.795 29.6275 155.707 29.6275C155.56 29.6275 155.421 29.6247 155.291 29.619C155.161 29.6134 155.019 29.6077 154.866 29.602V26.4494C154.968 26.4607 155.059 26.4692 155.138 26.4749C155.217 26.4805 155.297 26.4834 155.376 26.4834C155.948 26.4834 156.345 26.3757 156.566 26.1604Z" fill="#1E1E1E"/>
<path d="M158.971 10.1591C158.387 10.1591 157.886 9.96647 157.466 9.58124C157.047 9.19034 156.838 8.72013 156.838 8.1706C156.838 7.62674 157.047 7.1622 157.466 6.77696C157.886 6.38607 158.387 6.19062 158.971 6.19062C159.56 6.19062 160.061 6.38607 160.475 6.77696C160.894 7.1622 161.103 7.62674 161.103 8.1706C161.103 8.72013 160.894 9.19034 160.475 9.58124C160.061 9.96647 159.56 10.1591 158.971 10.1591Z" fill="#1E1E1E"/>
<path d="M57.1648 12.4535C57.3404 12.8047 57.4566 13.1985 57.5132 13.6347H61.7621C61.6601 12.5923 61.3967 11.666 60.9718 10.8559C60.5469 10.0458 59.9946 9.36313 59.3147 8.80794C58.6349 8.24708 57.8475 7.82219 56.9524 7.53327C56.0572 7.23868 55.0828 7.09138 54.0291 7.09138C52.4825 7.09138 51.086 7.43696 49.8397 8.12811C48.5934 8.81927 47.6048 9.83051 46.874 11.1618C46.1432 12.4931 45.7777 14.1162 45.7777 16.0311C45.7777 17.9402 46.1375 19.5605 46.857 20.8918C47.5764 22.2231 48.5565 23.2372 49.7972 23.934C51.0435 24.6252 52.4542 24.9707 54.0291 24.9707C55.2245 24.9707 56.2839 24.7895 57.2073 24.4269C58.1364 24.0643 58.9238 23.5771 59.5697 22.9653C60.2155 22.3478 60.7225 21.6651 61.0908 20.9173C61.4647 20.1695 61.6885 19.4104 61.7621 18.6399L57.5132 18.6144C57.4396 19.0336 57.3064 19.4104 57.1138 19.7446C56.9269 20.0732 56.6861 20.3536 56.3915 20.5859C56.1026 20.8125 55.7655 20.9853 55.3803 21.1042C55.0007 21.2232 54.5786 21.2827 54.1141 21.2827C53.287 21.2827 52.5703 21.0873 51.9641 20.6964C51.3636 20.2998 50.8963 19.7134 50.562 18.9373C50.2334 18.1555 50.0691 17.1868 50.0691 16.0311C50.0691 14.9207 50.2306 13.9746 50.5535 13.1928C50.8821 12.411 51.3495 11.8133 51.9556 11.3998C52.5675 10.9862 53.2955 10.7794 54.1396 10.7794C54.6155 10.7794 55.0488 10.8474 55.4397 10.9834C55.8363 11.1137 56.179 11.3035 56.468 11.5527C56.7569 11.802 56.9892 12.1023 57.1648 12.4535Z" fill="#1E1E1E"/>
<path d="M69.5057 12.1391C68.9675 12.5583 68.5795 13.1985 68.3415 14.0596H68.2056V11.6802H64.1691V24.7328H68.3245V17.6456C68.3245 17.1244 68.435 16.6712 68.6559 16.286C68.8825 15.8951 69.1913 15.592 69.5822 15.3767C69.9788 15.1558 70.4235 15.0453 70.9164 15.0453C71.1656 15.0453 71.4489 15.0651 71.7661 15.1048C72.089 15.1445 72.3497 15.1983 72.5479 15.2663V11.6547C72.3723 11.6037 72.1825 11.5669 71.9786 11.5442C71.7746 11.5159 71.5763 11.5017 71.3837 11.5017C70.6699 11.5017 70.0439 11.7142 69.5057 12.1391Z" fill="#1E1E1E"/>
<path fill-rule="evenodd" clip-rule="evenodd" d="M77.4299 24.9538C76.5971 24.9538 75.8578 24.815 75.212 24.5374C74.5718 24.2541 74.0648 23.8292 73.6909 23.2627C73.3226 22.6905 73.1385 21.9739 73.1385 21.1127C73.1385 20.3876 73.266 19.7758 73.5209 19.2772C73.7759 18.7787 74.1271 18.3736 74.5747 18.062C75.0222 17.7505 75.5377 17.5153 76.1213 17.3567C76.7048 17.1924 77.3279 17.082 77.9908 17.0253C78.7329 16.9573 79.3306 16.8865 79.7838 16.8129C80.237 16.7336 80.5656 16.6231 80.7696 16.4814C80.9792 16.3342 81.084 16.1274 81.084 15.8611V15.8186C81.084 15.3824 80.9338 15.0453 80.6336 14.8074C80.3333 14.5694 79.9283 14.4505 79.4184 14.4505C78.8689 14.4505 78.427 14.5694 78.0927 14.8074C77.7585 15.0453 77.5461 15.3739 77.4554 15.7931L73.6229 15.6572C73.7362 14.864 74.028 14.1559 74.4982 13.5327C74.9741 12.9039 75.6256 12.411 76.4527 12.0541C77.2855 11.6915 78.2854 11.5102 79.4524 11.5102C80.2852 11.5102 81.0528 11.6094 81.7553 11.8077C82.4578 12.0003 83.0696 12.2835 83.5908 12.6574C84.112 13.0257 84.5142 13.4789 84.7975 14.0171C85.0864 14.5553 85.2309 15.17 85.2309 15.8611V24.7328H81.3219V22.9143H81.2199C80.9877 23.3562 80.6902 23.7301 80.3277 24.036C79.9708 24.3419 79.5487 24.5714 79.0615 24.7243C78.5799 24.8773 78.0361 24.9538 77.4299 24.9538ZM78.7131 22.2345C79.1606 22.2345 79.5629 22.1438 79.9198 21.9625C80.2823 21.7812 80.5713 21.532 80.7865 21.2147C81.0018 20.8918 81.1095 20.5179 81.1095 20.093V18.8523C80.9905 18.9147 80.846 18.9713 80.6761 19.0223C80.5118 19.0733 80.3305 19.1214 80.1322 19.1668C79.9339 19.2121 79.73 19.2517 79.5204 19.2857C79.3108 19.3197 79.1096 19.3509 78.917 19.3792C78.5261 19.4415 78.1919 19.5378 77.9143 19.6681C77.6424 19.7984 77.4327 19.9684 77.2855 20.178C77.1438 20.3819 77.073 20.6255 77.073 20.9088C77.073 21.3394 77.226 21.6679 77.5319 21.8945C77.8435 22.1212 78.2372 22.2345 78.7131 22.2345Z" fill="#1E1E1E"/>
<path d="M92.9044 21.2487C92.8251 21.0901 92.7854 20.8833 92.7854 20.6284V14.7394H95.1393V11.6802H92.7854V8.553H88.63V11.6802H86.905V14.7394H88.63V21.0873C88.6187 21.971 88.7943 22.7047 89.1569 23.2882C89.5251 23.8717 90.0548 24.3023 90.746 24.5799C91.4428 24.8518 92.2784 24.9651 93.2528 24.9198C93.7514 24.8971 94.1791 24.8433 94.536 24.7583C94.8986 24.6733 95.179 24.6025 95.3773 24.5459L94.7484 21.5461C94.6578 21.5688 94.5218 21.5971 94.3405 21.6311C94.1649 21.6594 93.9978 21.6736 93.8392 21.6736C93.6182 21.6736 93.4284 21.6424 93.2698 21.5801C93.1112 21.5121 92.9894 21.4017 92.9044 21.2487Z" fill="#1E1E1E"/>
<path fill-rule="evenodd" clip-rule="evenodd" d="M103.212 24.9792C101.841 24.9792 100.663 24.6988 99.6772 24.138C98.6971 23.5714 97.9408 22.784 97.4082 21.7756C96.8814 20.7615 96.6179 19.586 96.6179 18.249C96.6179 16.9063 96.8814 15.7308 97.4082 14.7224C97.9408 13.7083 98.6971 12.9209 99.6772 12.36C100.663 11.7935 101.841 11.5102 103.212 11.5102C104.583 11.5102 105.759 11.7935 106.739 12.36C107.725 12.9209 108.481 13.7083 109.008 14.7224C109.54 15.7308 109.807 16.9063 109.807 18.249C109.807 19.586 109.54 20.7615 109.008 21.7756C108.481 22.784 107.725 23.5714 106.739 24.138C105.759 24.6988 104.583 24.9792 103.212 24.9792ZM103.238 21.8436C103.736 21.8436 104.158 21.6906 104.504 21.3847C104.849 21.0788 105.113 20.6539 105.294 20.11C105.481 19.5661 105.575 18.9373 105.575 18.2235C105.575 17.4984 105.481 16.8638 105.294 16.32C105.113 15.7761 104.849 15.3512 104.504 15.0453C104.158 14.7394 103.736 14.5864 103.238 14.5864C102.722 14.5864 102.286 14.7394 101.929 15.0453C101.578 15.3512 101.309 15.7761 101.122 16.32C100.94 16.8638 100.85 17.4984 100.85 18.2235C100.85 18.9373 100.94 19.5661 101.122 20.11C101.309 20.6539 101.578 21.0788 101.929 21.3847C102.286 21.6906 102.722 21.8436 103.238 21.8436Z" fill="#1E1E1E"/>
<path fill-rule="evenodd" clip-rule="evenodd" d="M127.639 8.09412C126.693 7.58426 125.569 7.32932 124.266 7.32932H117.076V24.7328H121.283V19.3282H124.138C125.469 19.3282 126.619 19.0818 127.588 18.5889C128.557 18.096 129.302 17.402 129.823 16.5069C130.35 15.6062 130.613 14.5553 130.613 13.3543C130.613 12.1589 130.356 11.1108 129.84 10.2101C129.325 9.30364 128.591 8.59832 127.639 8.09412ZM124.945 11.0429C124.515 10.8276 123.985 10.7199 123.356 10.7199H121.283V16.0141H123.356C123.991 16.0141 124.52 15.9036 124.945 15.6827C125.376 15.4617 125.702 15.153 125.923 14.7564C126.144 14.3542 126.254 13.8868 126.254 13.3543C126.254 12.8161 126.144 12.3515 125.923 11.9606C125.702 11.5641 125.376 11.2581 124.945 11.0429Z" fill="#1E1E1E"/>
<path d="M137.174 16.286C136.953 16.6712 136.842 17.1244 136.842 17.6456V24.7328H132.687V11.6802H136.723V14.0596H136.859C137.097 13.1985 137.485 12.5583 138.023 12.1391C138.562 11.7142 139.188 11.5017 139.901 11.5017C140.094 11.5017 140.292 11.5159 140.496 11.5442C140.7 11.5669 140.89 11.6037 141.066 11.6547V15.2663C140.867 15.1983 140.607 15.1445 140.284 15.1048C139.967 15.0651 139.683 15.0453 139.434 15.0453C138.941 15.0453 138.497 15.1558 138.1 15.3767C137.709 15.592 137.4 15.8951 137.174 16.286Z" fill="#1E1E1E"/>
<path fill-rule="evenodd" clip-rule="evenodd" d="M144.639 24.138C145.625 24.6988 146.803 24.9792 148.174 24.9792C149.545 24.9792 150.721 24.6988 151.701 24.138C152.686 23.5714 153.443 22.784 153.97 21.7756C154.502 20.7615 154.768 19.586 154.768 18.249C154.768 16.9063 154.502 15.7308 153.97 14.7224C153.443 13.7083 152.686 12.9209 151.701 12.36C150.721 11.7935 149.545 11.5102 148.174 11.5102C146.803 11.5102 145.625 11.7935 144.639 12.36C143.659 12.9209 142.903 13.7083 142.37 14.7224C141.843 15.7308 141.58 16.9063 141.58 18.249C141.58 19.586 141.843 20.7615 142.37 21.7756C142.903 22.784 143.659 23.5714 144.639 24.138ZM149.466 21.3847C149.12 21.6906 148.698 21.8436 148.2 21.8436C147.684 21.8436 147.248 21.6906 146.891 21.3847C146.54 21.0788 146.271 20.6539 146.084 20.11C145.902 19.5661 145.812 18.9373 145.812 18.2235C145.812 17.4984 145.902 16.8638 146.084 16.32C146.271 15.7761 146.54 15.3512 146.891 15.0453C147.248 14.7394 147.684 14.5864 148.2 14.5864C148.698 14.5864 149.12 14.7394 149.466 15.0453C149.811 15.3512 150.075 15.7761 150.256 16.32C150.443 16.8638 150.536 17.4984 150.536 18.2235C150.536 18.9373 150.443 19.5661 150.256 20.11C150.075 20.6539 149.811 21.0788 149.466 21.3847Z" fill="#1E1E1E"/>
<path fill-rule="evenodd" clip-rule="evenodd" d="M166.264 24.172C167.255 24.7101 168.434 24.9792 169.799 24.9792C170.938 24.9792 171.94 24.8065 172.807 24.4609C173.674 24.1096 174.373 23.6196 174.906 22.9908C175.444 22.3563 175.793 21.6113 175.951 20.7558L172.136 20.6454C172.028 20.9343 171.867 21.1779 171.651 21.3762C171.436 21.5745 171.178 21.7246 170.878 21.8266C170.578 21.9285 170.244 21.9795 169.875 21.9795C169.343 21.9795 168.884 21.8691 168.499 21.6481C168.113 21.4272 167.816 21.1184 167.606 20.7219C167.397 20.3196 167.292 19.8522 167.292 19.3197V19.2092H175.994V18.1725C175.994 17.1018 175.838 16.1529 175.526 15.3257C175.215 14.493 174.779 13.7933 174.218 13.2268C173.657 12.6603 172.991 12.2325 172.221 11.9436C171.45 11.6547 170.6 11.5102 169.671 11.5102C168.357 11.5102 167.216 11.7935 166.247 12.36C165.278 12.9209 164.527 13.7083 163.995 14.7224C163.462 15.7308 163.196 16.9092 163.196 18.2575C163.196 19.6455 163.459 20.8437 163.986 21.8521C164.519 22.8548 165.278 23.6281 166.264 24.172ZM167.295 16.7959C167.315 16.3758 167.428 15.999 167.632 15.6657C167.847 15.3088 168.139 15.0283 168.507 14.8244C168.875 14.6148 169.292 14.51 169.756 14.51C170.215 14.51 170.62 14.6091 170.972 14.8074C171.328 15 171.609 15.2691 171.813 15.6147C172.017 15.9602 172.122 16.354 172.127 16.7959H167.295Z" fill="#1E1E1E"/>
<path d="M184.209 24.9792C182.832 24.9792 181.651 24.696 180.665 24.1295C179.685 23.5629 178.932 22.7755 178.405 21.7671C177.878 20.753 177.615 19.5803 177.615 18.249C177.615 16.912 177.878 15.7393 178.405 14.7309C178.938 13.7168 179.694 12.9265 180.674 12.36C181.66 11.7935 182.835 11.5102 184.2 11.5102C185.407 11.5102 186.458 11.7283 187.353 12.1646C188.254 12.6008 188.956 13.2183 189.461 14.0171C189.97 14.8102 190.24 15.7421 190.268 16.8129H186.384C186.305 16.1444 186.078 15.6203 185.705 15.2408C185.336 14.8612 184.855 14.6714 184.26 14.6714C183.778 14.6714 183.356 14.8074 182.994 15.0793C182.631 15.3456 182.348 15.7421 182.144 16.269C181.946 16.7902 181.847 17.436 181.847 18.2065C181.847 18.977 181.946 19.6285 182.144 20.161C182.348 20.6879 182.631 21.0873 182.994 21.3592C183.356 21.6254 183.778 21.7586 184.26 21.7586C184.645 21.7586 184.985 21.6764 185.28 21.5121C185.58 21.3479 185.826 21.1071 186.019 20.7898C186.212 20.4669 186.333 20.076 186.384 19.6171H190.268C190.228 20.6935 189.959 21.6339 189.461 22.4384C188.968 23.2429 188.274 23.8689 187.379 24.3164C186.489 24.7583 185.433 24.9792 184.209 24.9792Z" fill="#1E1E1E"/>
<path d="M197.527 21.2487C197.448 21.0901 197.408 20.8833 197.408 20.6284V14.7394H199.762V11.6802H197.408V8.553H193.253V11.6802H191.528V14.7394H193.253V21.0873C193.241 21.971 193.417 22.7047 193.78 23.2882C194.148 23.8717 194.678 24.3023 195.369 24.5799C196.066 24.8518 196.901 24.9651 197.876 24.9198C198.374 24.8971 198.802 24.8433 199.159 24.7583C199.521 24.6733 199.802 24.6025 200 24.5459L199.371 21.5461C199.281 21.5688 199.145 21.5971 198.963 21.6311C198.788 21.6594 198.621 21.6736 198.462 21.6736C198.241 21.6736 198.051 21.6424 197.893 21.5801C197.734 21.5121 197.612 21.4017 197.527 21.2487Z" fill="#1E1E1E"/>
<path d="M16.0144 27.2955C18.7232 27.2567 28.7703 31.9364 28.7703 31.9364C30.3758 32.6024 32.1205 31.3796 32.1205 29.593V23.9831C32.1205 22.9507 31.5157 21.7526 30.5884 21.3685C30.5884 21.3685 20.9225 15.7268 16.0144 15.7057C12.4773 15.6916 1.5285 21.3649 1.5285 21.3649C0.604797 21.749 0 22.9471 0 23.9761V29.5825C0 31.3726 1.75211 32.5953 3.35758 31.9258C3.35758 31.9258 13.6685 27.3307 16.0144 27.2955Z" fill="#1E1E1E"/>
</svg>
